/* XPM */
static char *result[] = {
/* columns rows colors chars-per-pixel */
"64 64 187 2 ",
"   c #D30000",
".  c #D5000E",
"X  c #D60013",
"o  c #D7011B",
"O  c #D60A1C",
"+  c #D80622",
"@  c #D70921",
"#  c #D80C25",
"$  c #D80F28",
"%  c #D9112B",
"&  c #DF073A",
"*  c #DA1531",
"=  c #DB1B36",
"-  c #DD1D3C",
";  c #DB2338",
":  c #DA313C",
">  c #DE1F40",
",  c #EA004E",
"<  c #E21546",
"1  c #E90053",
"2  c #EA0C56",
"3  c #E91357",
"4  c #E91856",
"5  c #EA1B5A",
"6  c #DF2143",
"7  c #DD2842",
"8  c #DC3F4A",
"9  c #E02346",
"0  c #E1254A",
"q  c #E3294F",
"w  c #E42B53",
"e  c #E9235C",
"r  c #E62E59",
"t  c #EA295E",
"y  c #E7315D",
"u  c #E8325E",
"i  c #F8046A",
"p  c #EE2564",
"a  c #E72E60",
"s  c #EB2D62",
"d  c #F02467",
"f  c #F12368",
"g  c #E73760",
"h  c #EA3565",
"j  c #E73C63",
"k  c #EA3966",
"l  c #EB3768",
"z  c #EB3B69",
"x  c #F23570",
"c  c #BC7A54",
"v  c #DA4F58",
"b  c #D55D5D",
"n  c #D9585F",
"m  c #C7644B",
"M  c #C76F58",
"N  c #CC695A",
"B  c #C47257",
"V  c #E34663",
"C  c #EB436D",
"Z  c #E15765",
"A  c #EB4C72",
"S  c #EB5276",
"D  c #E75972",
"F  c #EC5478",
"G  c #E75B7B",
"H  c #EB5B7C",
"J  c #F2517B",
"K  c #E3616F",
"L  c #E76379",
"P  c #40BD00",
"I  c #55B300",
"U  c #58B509",
"Y  c #5AB514",
"T  c #5BB51A",
"R  c #5FB624",
"E  c #57BE2E",
"W  c #5ABD2F",
"Q  c #5EBB31",
"!  c #68AF23",
"~  c #61B626",
"^  c #62B72B",
"/  c #64B82D",
"(  c #7CAD3D",
")  c #66B733",
"_  c #69B635",
"`  c #66B833",
"'  c #68B936",
"]  c #6CB73A",
"[  c #6AB93A",
"{  c #73B239",
"}  c #50C12C",
"|  c #4FC432",
" . c #6DBA40",
".. c #73BD4B",
"X. c #7CBF5A",
"o. c #7EC05D",
"O. c #929537",
"+. c #83A93F",
"@. c #9D9849",
"#. c #A98E4C",
"$. c #A5914B",
"%. c #B48451",
"&. c #8CA342",
"*. c #8AC36D",
"=. c #93C67A",
"-. c #F45D85",
";. c #EC6683",
":. c #EE6B87",
">. c #EE6C8B",
",. c #EC728B",
"<. c #EF7491",
"1. c #EB7D95",
"2. c #F07B97",
"3. c #F17E97",
"4. c #EA8296",
"5. c #EB8599",
"6. c #E68C9C",
"7. c #F1839E",
"8. c #EE8EA1",
"9. c #F286A1",
"0. c #F28CA4",
"q. c #ED94A5",
"w. c #EA99A8",
"e. c #F396AE",
"r. c #F29CAC",
"t. c #F39BB1",
"y. c #E9A0AD",
"u. c #F1A0AF",
"i. c #E7A9B4",
"p. c #F4A1B6",
"a. c #F4A5BA",
"s. c #F5ABBE",
"d. c #E6B3BC",
"f. c #9ACC83",
"g. c #A9CE99",
"h. c #A9D397",
"j. c #B4D5A6",
"k. c #B8D6AE",
"l. c #BCD7B0",
"z. c #D3C8BC",
"x. c #C8DFBE",
"c. c #C7E1BD",
"v. c #F6ADC2",
"b. c #F6B3C4",
"n. c #F5BBC5",
"m. c #F7B4C8",
"M. c #FFCBD7C5",
"N. c #FFD1D9CC",
"B. c #FFD7D7D7",
"V. c #FFDCD7D8",
"C. c #FFDCDCDC",
"Z. c #FFEAC8CD",
"A. c #FFF3C5CD",
"S. c #FFEFCDD2",
"D. c #FFF8CAD2",
"F. c #FFEBD2D6",
"G. c #FFE1DDDE",
"H. c #FFE9DADD",
"J. c #FFF2D5DA",
"K. c #FFF9D3DA",
"L. c #FFD0E5C7",
"P. c #FFDAE8D3",
"I. c #FFDDE0DF",
"U. c #FFE3E9DF",
"Y. c #FFE3DFE1",
"T. c #FFDCE3E2",
"R. c #FFE3E3E3",
"E. c #FFE9E6E6",
"W. c #FFE3E8E7",
"Q. c #FFE6E6E9",
"!. c #FFE9E6EA",
"~. c #FFE4ECEA",
"^. c #FFEDEDED",
"/. c #FFF7E4E7",
"(. c #FFF1EDEE",
"). c #FFEFF2EE",
"_. c #FFF0F0EF",
"`. c #FFEFECF0",
"'. c #FFF2EEF1",
"]. c #FFFCEEF2",
"[. c #FFEDF4F3",
"{. c #FFF2F2F2",
"}. c #FFFBF4F6",
"|. c #FFF0F8F7",
" X c #FFF8F4F9",
".X c #FFF4FBFA",
"XX c #FFFDFDFD",
/* pixels */
"R.Q.XX{.C.{.XX^.C.XXXXR.^.XX).C.{.XXE.R.XX.XC.^.XX^.R. XXXR.E.XX XI.{.XX^.R.XXXXR.^.XX^.Y. XXXQ.R.XX{.Y.{.XX^.C.XXXXR.E.XX{.I.{.",
"C.R.XX XB.{.XX^.B.XXXXB.Q.XX{.B. XXXR.C.XXXXB.^.XX^.B.XXXXC.R.XX{.B.{.XXR.B.XXXXB.!.XX).B. XXXT.U.XXXXB.^.XX^.B.XXXXC.R.XX XB.{.",
"^.^.{._.^.{._.).^.{.^.^.). X'.^._.{.^.^.{._.^.{.{.).^.).{.^.^.{.{.^._.{.^.^._.{.^.).{.).^.).{.^.^. X^.^.).{.).^.^.{.^.^.{._.^.{.",
"XXXXB.^.XX).B. XXXR.R.XX XB.^.XX^.B.XXXXB.Q.XX{.B. XXXR.C.XXXXB.^.XX^.B.XXXXC.R.XX XB._.XXE.C.XXXXB.!.XX_.B. XXXR.C.XXXXB.^.XX^.",
"XXXXU.!.XX^.C. XXXR.R.XX XI.^.XX^.C.XXXXR.^.XX[.B.{.XXR.Y.XXXXC.^.XX^.C.{.XXR.R.XX XC._.XX^.C.XXXXI.E.XX[.C. XXXR.Y.XX.XC.^.XX^.",
"R.Q.XX{.R.{.XX^.R.}.XXQ.E.XX^.U.{.XXR.^.j.X.j.^.XX^.U. XXXR.Q.XX{.R. XXX'.Q.XX XR.^.XX_.U.{.XXQ.R.XX XY.^.XX^.R.}.XXR.!.XX{.U.{.",
"C.R.XX XB.{.XXQ.B.XXXXB.Q.XX{.B. XXXR.N._ T I o.)._.N.XXXXB.!.XX{.M.x.c.k.z.].XXC.E.XX^.B.{.XXR.U.XXXXB.^.XX^.B.XXXXC.R.XX{.B.{.",
").^.{._.^.^.{.(.^.{.{.^.^.{.'.^.'.[.'.U.' _  .U o.P.'.).{. XP.j.o./ I I P m x q.Y.{.{.'.^.'.{.^.^.'.^.^._.{.^.^.{.{._.^.{._.^.'.",
"XXXXB.^.XX).B.}.XXR.I.XXXXB.^.XX^.B.XXXXg.I _  .I =.XX^.N.h./ I R ' [ Q @.l h 1 A A.I.^.XX^.B.XXXXB.Q.XX{.B. XXXR.C.XXXXB.^.XX^.",
"XXXXC.^.XX_.I.{.XXQ.R.XX XC.).XX^.C.}.XX!.j.Y _ ' Y P.l.R I ' ] ' ' Q @.d h k C s 2 d.|.XXE.I.XXXXU.E.XX{.C.{.XXQ.R.XX XC.^.XX^.",
"R.E.XX{.R.{.XX^.R.XX}.R.^.XX'.I.{.XXQ.Q.XX X=.Y [ ` [ T ^ [ ` ` ` ' Q n p j k w k h e Z.W.{.XXQ.Q.XX XI.^.XX^.U. XXXU.^.XX{.I.{.",
"C.R.XX XB.^.XXQ.B.XXXXC.Q.XX{.B. XXXU.I.XXXXM.) ` ' ` ' ` _ ` ` ` _ E c f k w   0 z t S V. XXXR.C.XXXXB.^.XX^.B.XXXXB.R.XX{.B.{.",
"^.^.{.{.^.'.{.^.^.{.{.).^.{.{.^.^.{.^.^.{.^.'.*.T ' ` ` ` ` ` ` ` _ W ( u l w   - h z 1 w.|.^.^.^.{.{.^._.{.(.^.{.{.^.^.{.{.^.{.",
"XXXXB.^.XX[.B.XXXXI.Y.XX}.B.).XX^.C.XXXXB.^.L.Q ` ` ' ` ` ` / ` ` _ ] E B f k % % l h h C F.C.XXXXC.Q.XX{.B. XXXR.C.XX.XB.^.XX^.",
"XXXXC.^.XX^.C.{.XXQ.R.XX XC.^.XX^.C. XXX!.l.I ) ) ` ) ` ` ` ` ` Q E E } N d g h 6 h h z 1 w.W.XX XU.^.XX{.C.{.XXQ.R.XXXXC.^.XX^.",
"R.E.XX{.R.'.XX!.U.XX}.T.^.XX_.R.{.XXR.!.P.Y ` ` ` ` ` ` ` ` _ W ] $.#.B h h s e.5.e h h s D  XQ.R.XX XC.^.XX^.R..X}.R.E.XX{.R.{.",
"C.T.XX XB._.XXE.B.XXXXC.Q.XX{.B. XXXQ.N.[ ^ ' ` ` ` ` ) ) ) _ ` N i f f l l s e.v.C s h z 1 D.W.G.XXXXB.^.XX^.B.XXXXB.Q.XX{.B.{.",
"^.^.{.^.^._.{.).^.{.{.^._.{.{.^.).{.^.X.T [ ` ` ` ` ` ) ` ` W ( k g z y 9 k t H m.3.e k z 3 5.{.^.{.^.^.).{.^.^.{.{.^.).{.{.^.{.",
"XXXXB.Q.XX_.B.XXXXY.U.XXXXB.^.XXQ.R.h.I [ ` ` ` ` ` ` ` ` ` / ( j h k -   r z t t.v.C h g h C }.XXC.Q.XX{.B. XXXR.C.XX}.B.^.XX^.",
"XXXXR.^.XX_.C.{.XXR.R.XX XC.).XX^.M.~ _ ` ) ` ` ` ` _ _ ` ) ` _ V h k 9   0 z t L s.<.< O w 1 A.XXC.^.XX_.C. XXXQ.R.XXXXC.^.XX^.",
"R.E.XX{.R._.XX^.R.XX XR.^.XX'.I. Xf.I [ ` W ) ) ` ` W W ` ' ` ` b p k h # > l u + 5.t.0   7 5 4.~.XX{.I.^.XX^.C. XXXR.E.XX{.I.{.",
"C.R.XX XB._.XXQ.C.XXXXB.Q.XX_.Y.P.^ _ Q ( %.` ` ' Q &.&.Q / _ ` N d g k y q k l o K v.H . * h A G.XXXXB._.XX^.B.XXXXC.Q.XX XB.{.",
").^.{.{.^.^.{.^.^.{.{.^.^.{.(.{.h.I ] E B i &.W Q $.f s N +.} } n s k h h l h l q ; s.9.4 ; k e J.|.(.(.(.{.^.).).{.^.^.{._._._.",
"XXXXB.^.XX^.B.XXXXI.R.XX XB.{.XX..R ' { V d b W ` n d j d k M M l h h h h h l l z < q.a.h h k 1 n.T.R.XX{.B. XXXR.C.XXXXB.^.XX^.",
"XXXXC.^.XX^.C. XXXR.W.XX{.C. XP.I ] Q @.d k f %._ Z s l u g d d h h h h h h l h k e <.m.H s C 2 6.W.E.XX{.C.{.XXQ.U.XX XC.^.XX^.",
"R.Q.XX{.R.(.XX^.R. X XU.!.XX Xg.I  .E %.f g l s V k h h $ = z j h l l h h l u h k t S b.7.5 z e :.XX XT.'.XX^.T. XXXR.^.XX{.U.{.",
"C.R.XX XB.{.XXQ.B.XXXXB.E.XX].=.T [ E B f k h h s h l y X # u h l u 9 u l y o 9 l h h p.t.w k s C }.XXB.^.XX^.B.XXXXC.R.XX{.B.{.",
"^.^.{.).^.).{.^.{.{.{._.`.'.].,.! ) ) n s g l l h h h l > . u h k 0   9 z w   = h h e 9.e.; u l t J.{.^._.{.'.).^._.^.{.{.'.^._.",
"XXXXC.E.XX{.B.XXXXR.R.XX XB.^.-.O.|  .s s l r r k h h h h = r k l w   - l h % # h k e >.e.8 0 z 4 d.~.XX{.B. XXXU.I.XX XB.^.XX^.",
"XXXXI.E.XX).C.{.XXR.R.XX XI.!.J v { B d l h O @ h h h h h h h h h k - % l l h % a k t F a.Z < z 2 w.[.XX{.C.{.XXR.R.XX XI.^.XX^.",
"R.Q.XX{.C.{.XX^.R.XXXXR.E.XX(.D p h s h l h # o y l h l h h h h h h h q h h h h h h h k s.4.& C 1 r..XG.).XX^.R. XXXR.^.XX{.Y.{.",
"C.R.XX XB.{.XX^.B.XXXXB.E.XX{.G t j l l h l w   r l h y u l h h h h h h h h h h h h k t e.t.e C 1 8.XXB.^.XXE.B.XXXXC.R.XX{.B. X",
"^.(.[.).^.[.{.).^.^._.^.).{.{.5.3 z u y l h l 0 w l y o - k h h l h h h h h h h h h k t 0.a.h l 5 ,.{.).^.{._.^.{.{.).^.{._.^.{.",
"XXXXB.E.XX).B.}.XXU.R.XX.XB.|.s., C $ $ h h h h h k r . % h h k w h h h h h h h h h k < 2.v.z h s G ^.XX{.B. XXXR.C.XX XB.^.XX^.",
"XXXXI.^.XX'.C. XXXR.R.XX XC.{.K.2 k # X y h h h h h l - o u l w   0 l h h h = 9 l h g   K v.C h s D Q.XX{.C.{.XXQ.U.XX XI.^.XX^.",
"R.Q.XX XC.{.XX^.Y.XXXXR.E.XX(.G.A h w   w l h h h h l h = y l q   - l h h u . # h k h   Z v.S s s H (.R.(.XX^.T. XXXC.^.XX{.C.{.",
"C.R.XX XB.{.XXQ.B.XXXXB.Q.XX_.T.5.3 z 6 q k l l l h h h h h h h % % h h h h = X u h z & v v.S u s S (.B.(.XX^.B.XXXXC.R.XX{.B. X",
"^.^.{._.^.^.{._._.'.{.{.).{.^.|.A.4 l k h h h > r k h h h h h h h 6 h h h l h $ r l k t D s.F t s A (.{.(.{.'.).{._.).^.{.{.^.).",
"XXXXC.E.XX{.B. XXXU.I.XX}.B.[.XX^.G t k h k w   > l h h h h k l h h h h h h h u u k k e >.v.A s h A R.XX{.B. XXXR.C.XXXXB.^.XX^.",
"XX}.I.^.XX_.Y.{.XXR.Q.XX XC.(.XX[.i.3 z h l y X % h h h l u 0 l h h h h h h h h h k l e <.v.C h t F E.XX{.C.{.XXQ.R.XX}.C.^.XX^.",
"R.E.XX XI._.XX^.R.XX XQ.^.XX'.C.{.XXH t k h k 9 @ h h h l -   w l h h k l k h h h h l e 3.s.l k 5 :. XR.^.XX^.R.XXXXR.^.XX{.I.{.",
"C.T.XX XB._.XXQ.B.XXXXB.Q.XX{.B. XXXd.1 z l l l q h l h k 9   0 l h h h w h h h h h k e 0.p.a C 3 4..XB.^.XX^.B.XXXXB.Q.XX{.B. X",
"{.).{.^.^.[._._.^.'.{._.^.{.).).).[.(.;.e z h h k h h h h h # > l h l 6   w h h h h ; o t.e.e C 2 5.|.(.{.{.).^.^.^.^.^._._.^._.",
"XXXXB.^.XX).B.}.XXU.I.XX}.B.^.XXE.B.XXK.2 k h h h h h h h l y 0 l h l 6   0 l h h h @ o p.7.e z 5 6.~.XX_.B. XXXR.C.XXXXB.^.XX^.",
"XX XU.^.XX{.C. XXXR.Q.XX XC.{.XX^.I.XXXX4.2 z h h h k h h h l h h h h h o - l h h l < : s.,.e C 2 i.[.XX{.C. XXXR.R.XX XI.^.XX^.",
"R.R.XX{.R.^.XX^.R.XXXXC.^.XX'.C.{.XXR.Q.].C t k h h h l h h h h h k h l y 6 k h h z t L p.S s k 3 K..XC.{.XX^.C.}.XXI.^.XX{.U.{.",
"C.R.XX XB.(.XXE.B.XXXXB.Q.XX{.B. XXXR.C.XXD.1 C h h l 9 > k h h h h h h k h h h k h t e.e.u h h k ].XXB.^.XX^.B.XXXXC.R.XX{.B.{.",
"[.(.{.{.^.^.[.).^.{.{._.^.).).^._.).^.{._.|.q., z h h O X u l h h h k h h h h h k s S m.7.e z e ;.[.{.^.^.{.^.(._.[.{.^.{.'.^.'.",
"XXXXB.E.XX{.B.}.XXT.U.XX XB.^.XXE.B.XXXXB.E.XX,.5 C h -   r k h h h h h h h h h h h A a.F a z 2 q.T.Q.XX{.B. XXXR.C.XXXXB.^.XX^.",
"XXXXC.^.XX^.C. XXXQ.Q.XX XC.{.XX^.I.XXXXR.E.XX/.C e l h # q l h l 0 O u k h h h h y a z a h z 2 A.E.E.XX{.C.{.XXQ.Q.XX XI.^.XX^.",
"R.R.XX XG.{.XX^.U.XX XR.^.XX{.C.{.XXQ.Q.XX{.C.[./.C s z y y l h l =   w l h h k w   6 l l k a C H.XX XI.).XX^.R.}.XXR.E.XX{.C.{.",
"I.R.XX XB._.XXQ.B.XXXXB.Q.XX{.B. XXXR.C.XXXXB.^.XXF.t s z h h h l w   0 l h h k w   = l h z 4 1.W.XX}.B.^.XXE.B.XXXXC.R.XX{.B. X",
"_.).).).^.^.).)._.).{.^.^.[._._.^._.^.'._._._._.(.|.J.A 5 C k h h l 0 6 l h h h l * # h k k e S.|._.{.).^.{._.).).{.).).{._.).'.",
"XXXXC.E.XX^.B. XXXR.C.XX}.B.^.XX^.B.XXXXC.Q.XX{.B.{.XXH.D 1 z k h h h u h h h h l h - h z 4 ,.XXXXB.Q.XX{.B. XXXR.C.XX XB.^.XX^.",
"XX}.I.^.XX(.C. XXXR.R.XX XC.{.XX^.U. XXXR.Q.XX'.C.{.XX~.R.q.1 s z h h h k h h h h h h h j t Z.XXXXI.^.XX'.C. XXXQ.R.XX XG.^.XX^.",
"R.Q.XX XR.[.XX^.Y.XXXXR.!.XX_.U.{.XXR.R.XX XU.^.XX^.R. XXXQ.d.A 1 k z k h h h h h k k z , b.XXR.Q.XX{.G.^.XX^.I. XXXR.^.XX{.I.{.",
"C.R.XX XB._.XXQ.B.XXXXB.Q.XX{.B. XXXR.C.XXXXB.^.XX^.B.XXXXC.W.XXu.a 1 s h z z z z l t 1 6..XXXR.U.XXXXB.^.XX^.B.XXXXC.R.XX{.B. X",
"^.^.{.).^.{._.(._.{.{.(._.{.'.).).).^.).^.{._._.{.^.^.)._._.^.{.|./.p.L s 1 2 3 1 e H A.{.).).^.^._.^.^._._.^.)._._.^.).{.^.).).",
"XXXXB.^.XX(.B..XXXI.R.XXXXB.^.XXE.C.XXXXC.Q.XX{.B.{.XXQ.C.XXXXB.^.XX[.C./.D.y.y.n.J.C.|.XXQ.B.XXXXC.Q.XX{.B. XXXR.C.XXXXB.^.XX^.",
"XXXXG.^.XX[.C.{.XXQ.R.XX XC.{.XX^.I. XXXR.Q.XX{.G.{.XXE.R.XX XR.^.XX^.C..XXX~.~.XX.XC.(.XX^.R.XXXXY.^.XX{.C. XXXQ.R.XX}.I.^.XX^.",
"R.Q.XX XC.{.XX^.G.XXXXR.E.XX[.C.{.XXE.R.XX XG.^.XX^.R. XXXR.E.XX{.T.{.XXQ.I.}.}.U.!.XX^.U.{.XXQ.R.XX XI.^.XX^.I.XXXXY.^.XX{.R.{.",
"B.R.XX{.B.{.XX^.B.XXXXB.E.XX{.B. XXXR.I.XXXXB.^.XX^.B.XXXXC.R.XX XB.{.XXQ.C.XXXXB.!.XX'.B. XXXR.C.XXXXB.^.XX^.B.XXXXB.R.XX{.B.{.",
").^.{._.(.{.[.^.{.{.{.^.{.{.{.^.^.'.{.(.).[.[.(._.).^.).{.^._._.(._.^.{.(._.{.[._.).{.^.^.(.{.^.^.{.^.^._.{.(.[.^._.^.).{.^.'.{.",
"XXXXB.^.XX(.B.XXXXC.T.XX}.B.^.XX^.B.XXXXC.R.XX{.B. XXXR.C.XXXXB.^.XX^.B.XXXXC.R.XX XB.{.XXQ.C.XXXXB.^.XX_.B. XXXR.C.XXXXB.^.XX^."
};
