/* XPM */
static char *result[] = {
/* columns rows colors chars-per-pixel */
"64 64 81 1 ",
"  c #006200",
". c #006D00",
"X c #007400",
"o c #007900",
"O c #007B0A",
"+ c #007C14",
"@ c #007D1A",
"# c #0A7E1F",
"$ c #0C7F21",
"% c #127F23",
"& c #008017",
"* c #00811E",
"= c #078021",
"- c #0E8023",
"; c #168026",
": c #188127",
"> c #178228",
", c #1B822B",
"< c #21832E",
"1 c #248430",
"2 c #2A8535",
"3 c #2E8639",
"4 c #31873B",
"5 c #32893D",
"6 c #378D43",
"7 c #3A8C44",
"8 c #418F49",
"9 c #44904C",
"0 c #48914F",
"q c #479150",
"w c #4A9251",
"e c #4D9857",
"r c #59985F",
"t c #5C9A62",
"y c #619D67",
"u c #649E6A",
"i c #69A06E",
"p c #6CA372",
"a c #71A576",
"s c #76A77A",
"d c #77A87C",
"f c #7DAC82",
"g c #81AE85",
"h c #83AF88",
"j c #86B28A",
"k c #8AB48F",
"l c #8CB590",
"z c #92B795",
"x c #93B996",
"c c #96BA99",
"v c #9ABD9D",
"b c #9DBFA1",
"n c #9FC0A2",
"m c #A3C2A6",
"M c #A7C4A9",
"N c #A9C6AC",
"B c #AEC9B1",
"V c #B2CCB5",
"C c #B6CEB8",
"Z c #BBD2BD",
"A c #BFD6C1",
"S c #C2D6C3",
"D c #C3D8C5",
"F c #C7DAC8",
"G c #CBDCCC",
"H c #CEDFD0",
"J c #D0DFD2",
"K c #CFE0D1",
"L c #D2E2D4",
"P c #D7E5D8",
"I c #D9E6DB",
"U c #DCE8DE",
"Y c #DFEAE0",
"T c #E4EDE5",
"R c #E7EFE8",
"E c #ECF3EC",
"W c #EFF5F0",
"Q c #F1F7F2",
"! c #F4F9F4",
"~ c #F7FBF8",
"^ c #FEFFFE",
/* pixels */
"w=1<1<<,<<,1,,<<,<,,1<,1,,<<,<,,1,,1,,<<,<,,1<,1,,<<,<,,1,,<,,,2",
"w+>>%%;;;>;;>;;>::>;;>;>>>>>::>>>>:>>>>>::>>;;>>>>;>;:>>>>;:>>>,",
"w@,>:>::>>>>>>>,,,,,,,,,,,>,,,,,,,,,,,,,,,,,,,,,,>>>>>>>>>>>>>>,",
"w@,>::::>;>:;>;@@@@@@@@@@@@@@@@@@@@@@@@@@@@@@@@@@->>::::>:::>>><",
"w@<%,:::::::>;299889888899987998888888888889998892;;;::::::::>:,",
"0@,::::::::;<Xj~Q!Q!!!!!QQQQ!!!Q!!!!!!!!!!QQQQQQ^jX<:::::::::>;<",
"w@%,::::::::1Xl^^^^^^^^^^^^^^^^^^^^^^^^^^^^^^^^^^kX1::::::::>>;,",
"w@<%:::::::;1Xk^~^^^^^^^FncVQ^^^^^^^^^^^^^^^^^^^^kX1::::::::,>>,",
"w@,::::::::;1Xk^^^^^^^QiXXXX7I^^^^^^^^^^^^^^^^^^^kX1:::::::::>:<",
"w@,:::::::::1ok^^^^^^^j.3112X7Q^^^^^^^^^^^^^^^^^^kX1::::::::::;,",
"w+,>:::::::>1Xl^^^^^^T$,%>;;3XB^^^^^^^^^^^^^^^^^^ko1:::::::::>;,",
"w@,::::::::;1Xk^^^^~^SX1%,:;1Xl^^^^^^^^^^^^^^^^~^lX<:::::::::>;<",
"w@,%::::::>;1Xk^^^^^^FX1,%,,1Xz^^^^^^^^^^^^^^^^^^lX1:::::::::>:,",
"w@,,::::::::1Xk^^^^^^Q2%<>,%3XS^^^^^^^^^^^^^^^^^^kX1::::>::::>;<",
"0@,%:::::::;1Xl^^^^^^^N.%2<,.y^^~^^^^^^^^^^^^^^^^kX1::::::::;;;,",
"0@<,::::::::1Xk^^^^^^^^M%XX<k~^^^^^^^^^^^^^^^^^^^kX1:::::::::,;<",
"0@,::::::::;1ol^^^^^^^^^RKSZUULGGKLGFFFGUW^^^^^~^kX1:::::::::>;,",
"0@<%::::::::1Xk^^^^^^^^^^Ts2oooXooXoXoXXo1m^^^^^^lX1:::::::::>;<",
"0@<,::::::>;1Xk^^^^^^^^^ZXX;<,<<<<<<11<<,>.v^^^^^kX1::::::::;>;,",
"0@,%::::::::1Xk^^^^^^^^LX,1:::>::>;:11111,1oY^^^^kX1:::::::::,;<",
"0+,::::::::;1Xl^^^^^^^W7@<::::::::>%XXXXo<<Xg^^^^kX1;::::::::>;,",
"0@,,::::::::1Xk^^^^^^^iX1%:::::::,#5jjjku+,<oP^~^lX<:::::::::>;<",
"w@<%::::::::<Xk^^^^^^kX2%<<%>%::%,;,E^^^!7@1Xp^^^lX1::::::::;>;,",
"0@,:::::::::1Xk^^^^^VX2%,%@,,,::,%2Xm^~^^BX11XF^^kX1::::::::>,,,",
"0@<%::::::::1Xl^~^^L@>%<@4q@,:::,%<+0~^^^!8@1Xt^^kX1::::::::::;,",
"w@,,::::::::>$7iuyu1@<,1XJS.2%::%,%1XF^^^^VX1<XD^jX1::::::::::,,",
"0@,%::::::::;>#Xooo%<%2XM^E6#,>:,,,<Xd^^^^~0+7.m^jo<::::::::>>;,",
"0+<,::::::::::,<<11,%3Xg^~^vX2%:,%%,:;T^^^^DXX@I^jX<::::::::;,,,",
"0@<:::::::::::%,>>,%$.t~^^^Y@%>:%,,%1XN^~^^^LBT^^kX1::::::::>:;,",
"0@<%::::::::::#@$@@>8cQ^~^^^sX<:,,%,,+e~^^^^^^^~^lX1::::::::::><",
"w@,,::::::::<XfETTTT~^^^^^~^SX1>,%%,%1XS^^^^^~^^^kX1::::::::>>;,",
"0@,%::::::::<Xv^^^^^^^^^^^^^Q7@,%,<%%2Xm^^^^^^^^^kX1::::::::>,>,",
"7#,:::::::::1Xz^~^~^~^^^^^^~^xX1,::::<Xc^^^^^^^^^kX<:::::::::>:<",
"7*,::::::::;1Xk^^^^^^^^^~^^^^ao<::<,:<Xg^^^^^^^^^kX1:::::::::>;,",
"5-,:::::::::1Xl^~^^^^^^^^^^^HX<::%@%:<op^^^^^^^^^kX1:::::::::>;,",
"8*>::::::::;1Xk^^^^^^^^^^^^^ao<;<#t<%<Or^^^^^^^^^kX1:::::::::>;<",
"5%<::::::::;1Xk^^^^^^^^^^^^Jo<:,+8L<;,@7Q^^^^^^^^kX1;>:::::::>:<",
"7*:::::::::>1Xk^^^^^^^^^^^^sX<;1XN!<$<%1E^^^^^^^^lX1:::::::::>;,",
"5#::::::>>:;1Xk^^^^^^^^^^^Po<:>%1Q^7@,>@T^^^^^^^^kX1::::::::>;;,",
"7#,::::::;;,1Xl^^^^^^^^^^^fX<;2Xc^~tO<<oH^^^^^^^^lo2>>:::::::,;<",
"7*,::::::::;1Xl^^^^^^^^^^T+,>,>-T^^so11XS^~^^^^~^f X><%>:::::>;,",
"5%::::::::::1ok^^^^^^^^^^z.<%1Xk^~^kX11XV^^^^^^^^LBhO+<:::::::;<",
"7-<:::::::>;1Xk^~^^^^^^^R%%,,<+U^~^bX1,oiGDZZZZZZGJQT8+,;:::>>;,",
"7*::::::::::1Xk^^^^^^^^^vX2%<Xg^^^^VX1;,+XXXXXXXXXXOHR+:,;::>,,,",
"7%:::::::::;1Xk^^^^^^^^E1%>,,OU^^^^SX1;;%2111111112$XTmX1:::::;,",
"5&::::::::::1Xk^^^^^^^^bX2%1Xg^^^~^LX311121<111<1115XcEX,:::::>,",
"7*<:::::::::<Xk^^^^^^^W3$,><oI^^^^^~t.XXX.X.XXX.X..X.OEpo<::>>:,",
"7-::::::::::1Xk^^^^^^^mX1;<Xd^^^^^^^EVvvbnNNNNNNNBVNBv~GX1::>>><",
"7%,:::::::::<ok^^^^^^W4$>%1XL^^^^^^^^^^^^^^^^^^^^RLIPIIZ;;>>:>%<",
"7*::::::::::<Xk^^^^^^MX2%1Xs^^^^^^^^^^^^^^^^^^^~^f XXXXo>::::>;<",
"5#,:::::::::1Xk^~^^^Q7@>><XL^^^^^^^^^^^^^^^^^^^^^lo3<<<<;::::>;,",
"7#::::::::::1Xk^^^^^NX2><oi^^^^^^^^^^^^^^^^^^^^^^kX<>>:>:::::>;<",
"7*::::::::::1Xk^^^^Q7@,:3XD^^^^^^^^^^^^^^^^^^^^^^kX1;::::::::>:<",
"5%<::::::::>1Xk^^~^VX2,<Xt^^^^^^^^^^^^^^^^^^^^^^^lX<:::::::::>;,",
"7-<::::::::;1Xk^^^!9X+o+tT^^^^^^^^^^^^^^^^^^^^^^^lX1:::::::::>;,",
"7*::::::::::1Xl^^^~TQWEQ^^^^^^^^^^^^^^^^^^^^^^^^^jo1:::::::::>;<",
"5-:::::::::;<oy^^^^RNAZCCG~^^^^^^^^^^^^^^^^^^^^^^m.2;::::::::>:,",
"8&,:::::::::;<Xj^^^~j XXXXeF^^^^^^^^^^^^^^^^^^^^^^kX2;:::::::>;<",
"5-,::::::::::;1Xg^^^^bX421+XB^^^^^^^^^^^^^^^^^^^^^^kX2;:::::>;;,",
"5-,::::::::::>;2Xf^^^^v.2%<<XV^^^^^^^^^^^^^^^^^^^^^^hX2::::::,;<",
"7*<::::::::::::;2Xf^^^^bX2%,,XC^^^^^^^^^^^^^^^^^^^^^^jX2%>>>:>;,",
"7-:<:<:::,,,>,>,%2Xg^^^^b.2,,1XV^^^^^^^^^^^^^^^^^^^^^^j.3,,,,,,1",
"5O-#--*-##*%%**%##<Xd^^^^bX%-;%XB^^^^^^^^^^^^^^^^^^^^^^kX%@++@+=",
"e5855585757757576669&l^^^^b,7777*S^^^^^^^^^^^^^^^^^^^^^^z7ewww0e"
};
