/* XPM */
static char *result[] = {
/* columns rows colors chars-per-pixel */
"64 64 106 2 ",
"   c #6C4A35",
".  c #714C34",
"X  c #704D38",
"o  c #6F523E",
"O  c #72523C",
"+  c #745644",
"@  c #765946",
"#  c #785946",
"$  c #745C4B",
"%  c #785E4B",
"&  c #735C51",
"*  c #77604D",
"=  c #7B614D",
"-  c #776053",
";  c #7D6553",
":  c #7E6855",
">  c #7E6A59",
",  c #816755",
"<  c #806856",
"1  c #826C5A",
"2  c #8A6F5E",
"3  c #84715E",
"4  c #867362",
"5  c #8A7563",
"6  c #8C7A65",
"7  c #897768",
"8  c #8D7E6A",
"9  c #927E6E",
"0  c #8F7F71",
"q  c #917F70",
"w  c #8E816C",
"e  c #90836E",
"r  c #8F8172",
"t  c #928673",
"y  c #988576",
"u  c #958976",
"i  c #9A8B75",
"p  c #958778",
"a  c #978B79",
"s  c #998D7B",
"d  c #9B907F",
"f  c #3B718F",
"g  c #46738F",
"h  c #4A7590",
"j  c #517890",
"k  c #1B84AA",
"l  c #2787AC",
"z  c #3084A8",
"x  c #3F86A8",
"c  c #3089AC",
"v  c #698192",
"b  c #738593",
"n  c #468EAD",
"m  c #568BA7",
"M  c #508BA8",
"N  c #5191AE",
"B  c #5996B0",
"V  c #5E99B1",
"C  c #628FA8",
"Z  c #6C90A6",
"A  c #6E99AE",
"S  c #7895A6",
"D  c #7295A9",
"F  c #7C9EAF",
"G  c #6B9FB3",
"H  c #71A1B3",
"J  c #878D8C",
"K  c #8A8D8A",
"L  c #9B8F81",
"P  c #908F89",
"I  c #8C928F",
"U  c #9D9282",
"Y  c #94948D",
"T  c #9C968B",
"R  c #8A9196",
"E  c #939697",
"W  c #A19686",
"Q  c #A19789",
"!  c #A39A8C",
"~  c #A99D8D",
"^  c #A69E90",
"/  c #A89F92",
"(  c #A39F98",
")  c #A7A08F",
"_  c #A7A092",
"`  c #ABA394",
"'  c #ADA599",
"]  c #AFA89B",
"[  c #B1A697",
"{  c #B0A79B",
"}  c #B1A99D",
"|  c #919FA7",
" . c #93A5AD",
".. c #9CA7AC",
"X. c #9BABAF",
"o. c #82A5B2",
"O. c #8AA7B1",
"+. c #ACACA7",
"@. c #A2ADAE",
"#. c #AFAFAA",
"$. c #B4ADA1",
"%. c #B8AFA2",
"&. c #B4B0A5",
"*. c #BDB4A6",
"=. c #B4B3AE",
"-. c #BDB6A9",
/* pixels */
"] ' ' ` ` ~ ` ) ) ) ) ) ` ` ) ) / ` ~ ) ` ! ` ~ ) ) ) ) ` ) ) ) ) ` ) ) ) ) ) ) ) ` ) ) ` ~ ` ) ) ) ` ~ ) ) ` ` ~ ) ) ` ` ' { { ",
"] ] ' ` ` ` ~ ` ) ` ` ~ ) ) ) ` ` / ` ` ` ` ) ` ` ) ) ` / ` ` ) ) ) ` ~ ` ) ) [ ) ` ) ) ) ` ) ) ` ) ~ ` ` ) ) ) ` ! ! ` ` ` { { ",
"{ { ' ` ` / / ` ` ) ` ` / ` [ ~ / ` / ( ` ) ` ^ / ` ` ` ` / ` ( [ ` ~ ` ) ` ` ) ` ^ / / ` ) ` ` ` ) ` ` ) ` ` ) ` ) ` ~ ` ' { { ",
"' ' ' ' ` / ` ` ` ` ` ` ` ` ` ` ` ` ` ' ` ` ` ` ` ` ` ` / ` ` ` ` ) ` ` [ ) ` ` ` ` ` ` ` ` ` ) ) ` ` ` ` ) ` ` ` ) ` ` ` { { } ",
"{ { ' ( { / ` / ` ` / ` ` ` ` ` ' / / / ' / ' / ` ` / ` ` ` / ` ` / / ` ` ` ` / ` / ' / ` / ' ` [ ` ` ` ` ` ` ` ` ` ` ` ' [ } ' ",
"{ ' ' ' / ' ` ` ` ` ' ` ` ` ` ` / ' ' ' ` ` ` ` ` ` ` ` ` ' ' / ` ' ' / ` ` ' ` ` ` ` ' ' ' ` ` ` ` ` ` ` ` ` ` ` ` ` ` ' { } } ",
"' ' ' ' { ` ` ` ` ` ' ` ' ` ` ' ' ` ' ` ' ` ` ' ` ' ` ` ' ' / ' ' ' ` ' ' ` ` ' ` ` ' / ` ` ` ` [ ` ` ] ' ' ` ' ` ` ` ' ' { { } ",
"$.' ' ' ' / ` ' ' ` / ' / ' ` ' ` ' ` ' ` ' ' ` [ ' ' ' ` ' ' ' ' ` ' ' ` ' ' ` ' ` ` ' ` ' ' / ` ` [ ` ` ` ' ` ` ' ' ' ' ' } ' ",
"{ ' +.' ' ' ` ' ` ' ` ' ' ` ' ' ` ] ` ' ' ' ' ' ' ' ' ' ' ' ' ' ' ` ' ' ' ' ' ' ` ' ` ' / ' ' ' ' ` ' ` ` ` ` ] ' ` ' ' ' ] ] ] ",
"' ' ' ' ' ` ' ` ' ` ' ` ` ' ' ` ' ' ' ' ` ' ' ' ` ' ' ` ' ' ` ' ' ' ' ' ' ' ` ' ' ' ' ' ' ' ` ' ` ' ` ' ] ] ` ` ' ' ` ' ' ] ] ] ",
"{ { ' ' ` ' ` ' ` ' ' ' ' ' ' ' ` ' ' ' ' ' ' ' ' ' ' ' ' ' ' ' ' ' ' ' ` ' ' ' ' ' ' ` ' ' ' { ' ] ` ` ` ` ` ] ` [ ' ' ] ] ] ] ",
"$.' ' ' ' ` ' ` ' ` ` ' ' ' ] ' ] ' ' ' ' ' ` ' ' ' ' ' ' ` ` ' ' ' ' ` ' ' ' ` ' ' ' ' ' ' ' [ ' ' ] ` ] ' ` ] ' ` ` ' ] ] ] $.",
"' ' ' ' ' ' ` ' ` { } } ` ! L s Q / { { ' ' ' ' ' ' ' ' ` ' ' ' ' ' ' ' ` ' ' ' ' ` ' { { { / ! L U ~ / { } ] ` ` ' ` ' ] ] } } ",
"+.{ { { ' ' ' ' ` { { / T p 5 2 q L / { ` ' ' ' ` ' ' ' ' ' ' ' ' ` ' ' ' ' ' ' ' ' ' { [ / Q y 6 9 s ~ ` ' ` ] ] ` ] ] ] ] ] $.",
"' $.' ' ' ' ' $.{ ~ y 5 2 q U U y 4 2 q Q ' %.{ ' ' ` ' ' ' ' ' ' ' ' ' ' ' ' ] $.%.' Q q 2 6 y U L q 2 4 p ~ { $.} ] ` ] ] ] ] ",
"{ { { { { / ^ W s y 7 9 q L ^ ^ Y p 7 7 q p U ^ / ' ' ' ' ` ' ' ' ' ` ' ' ' ] / ! L s q 9 7 y L ^ T L 0 7 8 t d W ) ` ] ] } } } ",
"{ $.$.$.{ / s 2 # < p Q ( ! Q Q ^ ( ! L 4 $ % q ! ' { ' ' ' ' ' ' ' ' ' [ $.{ ! q , # 4 s ! / ! T ! ( ^ T t 1 $ 1 L / $.$.' $.{ ",
"$.' $.%.$.( L , O < p ! ! U p q s Q ^ L 4 + % p ^ $.%.' ' ' ' ] ' ' ` ] { $.$./ q % + 4 L ^ Q s q q L ! ! p ; X , L ' $.$.$.{ $.",
"$.' ( / ! L q 9 7 8 p L s q 5 2 8 y L s q 7 7 q L U ! ` ' $.' ' ] { { { ` ( Y s 0 7 7 0 s L p 7 2 2 q s L p 7 5 7 0 L Q / ( $.$.",
"$.$./ q , # 7 L ! U y 7 5 4 5 5 5 4 5 q L Q T q % # 7 Q ' $.$.{ ' %.%.{ T 5 + & 0 W Q L q 4 5 5 7 5 2 4 6 p U Q L 3 + & q ! $.%.",
"] ' Q 7 # + 1 L ! ! U s s s s s s a s L Q ^ L 7 @   1 p ! ` _ T ! / / ! p :   + 7 L ! Q U a s s L L a a s U ! ! p >   o 7 Q ' ' ",
"^ / U q 2 < 7 p W Q T Q T Q T T Q Q T T Q Q L r 3 1 5 t d U U U L U W L y 5 : > 0 L Q ! ! W Q T Q Q ! Q ! Q Q T P 7 : > q T ^ ` ",
"^ ^ ! W L L L L U U U U L U U d L U L U U U U L d d d U U U U U U U U U U s L L L T U U W d U U U W U T U Q T W U U U U Q ! / / ",
"! ^ ! T T L L L U L s U s L U s L L U L L L U U U U U U U d d U L U U L L U W W L L L U U U U d U U U U U U U U U U W ! ! ^ ^ ^ ",
"^ ! ! Q L L d L L L d d d d s U d s U s d U d d s U L L L U s U L U s U L s U L d U d d U U U U U U U U d U U U U U U T T ! ^ ^ ",
"! ! ! U U L d L U U U L d U U U U U U U U U U U U U U d L L L L L s U U U U U U d U U U U U U U U U U U W U W U U U U U Q ! ! ^ ",
"! ! Q U U a u r 7 7 > w 4 6 6 6 6 6 6 6 5 4 5 5 7 8 r u s L L L s U s s a r 7 7 7 5 5 5 6 6 6 6 6 6 6 6 6 7 6 8 t u s U ! ! ! ^ ",
"W ! ! W U a w > ; * * : ; - $ $ & & & % ; , , % = ; 4 r s U s s s U U s t 3 ; = = , ; = * $ $ & & ; ; = , , = , 3 w s U T ! ! ^ ",
"W W ) d d s u t t d ~ ` _ R v g f f j b E ` / ~ a t t s a d d s s s d s a t t s ~ [ / E b j f f h v R ` ` ~ d u t a a d W ! ! ! ",
"W T U U d s a a d ) %.-.=. .A n l k x D ..=.*.[ ! a a s s a a d s s a d a a d ! [ *.=.@.F N c k z C  .=.*.%.) d a a s U U ! ! ) ",
"T U U d d s u u s ! ' %.#.X.o.G B M m S ..$.%.[ U a u a s s a s s s a a a u a U ` } &.@.O.H V M M Z | +.&.[ ! s a a s d U ! ! ^ ",
"W U U d s s s s s d U W T T Y R K K K Y Y Q W U d s a s a s s a s s d a a a a d U W ! T Y R K K K P Y Y ! U U s a s s U U ! ! ! ",
") d d d s a a s a a a u u u i i i i i i u u u u a i a s a s i i a a a a i a a a u u u u u u i i i i i u u u s s a a s s U T ) T ",
"d d d d s a a s a a a a u a a a i i s u u s u a a s u u a i u i a a u a a a a a a a a u a a a a a a a a d a s u s s s s d T U ! ",
"d ) d d s a s u a u a a i a a a s u a a a a u a u a a d a e 6 > 1 3 t a i a u a u a u a u u a a a a a a a a a a u u s s d ) ) U ",
"d d d d u u u u a a i a a a a a u s a a a a s u a a u d s w : . . : w i d a a u a u a u u a u a a a a a a a a a u s u s d d T U ",
"d d d d u u u s u a a a a u a a a s u a u s u u u u d d a w >     ; w a s a u u u a u a u a u u u u a u a u a u a u u s d d W ) ",
"d d d d s a s u u s a a u a a u u u a u a u u d d u w w > > 3 3 3 3 : : 5 e u s s a u u u u u u u a a u u a u a a a u s d d U U ",
"d d d d s u u u a u a u a u u a u u u u u u u e e w 3 * o * w u a 6 * O * 3 e u a u u u u u u u u u u a a u a u u a u a d d ! U ",
"d d d d u u a a u a u a a u a a u u u s s u e 3 * o * 3 w e e u a t t w 3 * o * > r a a a u u u u u u u u u u a a u i a d d ) d ",
"d d d u u u u u u u u u u K a u u u u u u a e w 3 > 3 w u I u u u a d u w > > > 7 t u s u u u u u u u u u u u u u u u a d d d d ",
"d d d a u u u u u u u u u u u u a u u u u u u u u u u u u e u u u u u u a u s a u u u u u u u u u u u u u u u u u u u a s d d d ",
"d d d i u u u u u u t u u u u u u u e u u u u u u u u u u u u u u u u t u u u a u u u u u u t u u u u u u u u u u u u u d d d d ",
"d d s u u u u u u u u u e u u e u u u u e u u e u u u u u u e u t t u u u u t u t u t t t u u u u u u u u u u u u u t u i d d d ",
"i d a i u u u u u u t u u t t u t u e u u e u t u e u u u e u u u t t u t t u t t u t t u t t u u u u e u u t u u t u u i d d d ",
"d d a a u u u u t u u t u t u t u u u e u u t u e u u e u u e u u t u t t u t t u t u t u t u t u u u u t u u t u u e u i d d d ",
"i d a a u e u e t u u u t t u t t t u u t u u e u u e u e u e e t t u t u u t u t u t t t t u u u t e u u u u u t e e u i d d d ",
"d a u u u u e u t t t t t t t u e u e e K u e u e e K u e u J e u t t u t t u t t t t u t u t t t u e u t t t t u t u u i i d d ",
"i u i u u e e e e u e e u e u u e u u u e u u e u u e u u u e u t e u u e K t t t t t t e e u e t t t u t u t t e u u u u a d d ",
"d d u u u e u e u e u e e u e e u u e e u e e u e u J e e u u e t u e e e t t t t t t u u u e u u t t t t u t u e t e u u a s a ",
"d i i u u e e e e e u e e e e K u e e u e u e e u e w e e u e e t t e u e u t t t t u e e u u e t t t t u t t t t u t t u a a s ",
"i d u u e e e e e e e e e e e w e e e e e e e e e e e e e e u w t t u e e e t t e t e u e e e u e t w t e e w u e e e u u a a s ",
"a a u u e e e e e e e e e e e u e e e e e e e w e e e e e e e J e J w w e e e t t J w w e u e e t e r e t t t w e e e e u i i i ",
"d a i e e e e e e e e e e e e e e e e e e e e w e e e e e e e e t e e w e e e e e e e e e e e e e e r e w t w u e e e u u u i i ",
"u a u u e w w e e e e e e w e e e e e w e w w w e e e e e e e e e e e e e e e e e e e e e e e e t e e w t t w w e e w e u i i d ",
"u i u e e e w e e w w e w e w e w e w e w e w w e e w e e e e w e w w w e w e w e w e w e e e e w e w t w w t w e e w w u a i s ",
"a u u e w w w w w w w w w w w w w w w w w w w w w w w w w w w w w e w w w w e w w w w w w w w w w w w w w w w w w w w e e i i i ",
"u u u e w w w w w w w w w w w w w w w w w w w w w w w w w w w w e w w w e w w e w w w w w w w w w w w w w w w w w w w w e u u u ",
"u u w w w w w w w w w w w w w w w w w w w w w w w w w w w w w w w w w w w w w w w w w w w w w w w w w w w w w w w w w w e e i i ",
"d u w w w w 3 w w w w w w w w w w w w w w w w w w w w w w w w 8 w w w w w w w w w w 8 w w w w w w w w w w w w w w w w w e u i u ",
"u u u e w w w w w w 8 w w w w w w w w w w w w w w w w w w w w w w w w w w w w w w w w w w w w w w w w w w w w w w w w w e i i i ",
"u u e e w 3 w w 3 8 8 w w w w w w w w w 8 8 8 w w w w w w w 8 w w w w w w w w w w 8 w 8 w w w w w w w w w w 6 w 6 6 6 w e e i e ",
"u u u e w w 3 8 w w 8 8 w w w w w 6 w w w 8 8 w w w w w 8 8 8 8 w w w w w w w w 8 8 w w 6 w 6 w 6 w 6 w 8 6 w 6 6 6 w w e e i i ",
"u u e e w w w w w w w w w 3 w w w 6 w 6 w 8 8 w 6 w 6 w 8 w 8 w w 6 w 3 w w w w w w 6 w 6 w w 6 w w 6 w 8 w 8 w w 6 w w e e i i "
};
