/* XPM */
static char *result[] = {
/* columns rows colors chars-per-pixel */
"64 64 192 2 ",
"   c #671100",
".  c #662500",
"X  c #6C2300",
"o  c #6E2B00",
"O  c #702E00",
"+  c #733300",
"@  c #763B0F",
"#  c #753C14",
"$  c #77401E",
"%  c #7B4525",
"&  c #7B4628",
"*  c #7C492C",
"=  c #7F4D32",
"-  c #883A00",
";  c #F93700",
":  c #8E4600",
">  c #804E32",
",  c #835136",
"<  c #82533B",
"1  c #BD6E30",
"2  c #FB4608",
"3  c #FC4C08",
"4  c #FD5200",
"5  c #FC5408",
"6  c #FC5C08",
"7  c #DF6B00",
"8  c #FC6906",
"9  c #FC6408",
"0  c #FC6C09",
"q  c #FD7600",
"w  c #FD7C00",
"e  c #FC7309",
"r  c #FC7C09",
"t  c #FC7C14",
"y  c #C66E21",
"u  c #FC6434",
"i  c #875C48",
"p  c #835F50",
"a  c #89604C",
"s  c #8F6A5A",
"d  c #926D5C",
"f  c #B6754B",
"g  c #947263",
"h  c #96786A",
"j  c #9B7B6C",
"k  c #9C7D70",
"l  c #C27A49",
"z  c #FD8300",
"x  c #FD8902",
"c  c #FC8509",
"v  c #FD8A09",
"b  c #FD9309",
"n  c #FD9B09",
"m  c #FD8B14",
"M  c #FC8C1B",
"N  c #FF911B",
"B  c #FDA409",
"V  c #FDAC09",
"C  c #FDB30A",
"Z  c #FDBB0A",
"A  c #EF8728",
"S  c #FC8D22",
"D  c #FC8F2A",
"F  c #F48C30",
"G  c #FD9334",
"H  c #F69038",
"J  c #FC943D",
"K  c #FEC30A",
"L  c #FECC0A",
"P  c #FCDF00",
"I  c #FED20A",
"U  c #FEDB0A",
"Y  c #FEE20B",
"T  c #FFEB0B",
"R  c #FDE43F",
"E  c #9C8174",
"W  c #A3867A",
"Q  c #A68A7D",
"!  c #FC9745",
"~  c #FF9B4D",
"^  c #E18F53",
"/  c #FC9D53",
"(  c #F49C59",
")  c #FFA35F",
"_  c #E79760",
"`  c #F29F63",
"'  c #F28E74",
"]  c #F8947C",
"[  c #FAA263",
"{  c #F5A468",
"}  c #FAA66A",
"|  c #EFA676",
" . c #F8AA75",
".. c #FCAC75",
"X. c #F5AE7E",
"o. c #FEB17D",
"O. c #F3DF72",
"+. c #FBE669",
"@. c #A88D81",
"#. c #AB938A",
"$. c #B6998B",
"%. c #B29C93",
"&. c #B5A29A",
"*. c #B7A9A4",
"=. c #FD9A84",
"-. c #D6A88E",
";. c #EEAE84",
":. c #F2AD81",
">. c #EEB087",
",. c #EFB38E",
"<. c #F4B38A",
"1. c #FAB588",
"2. c #FEBA8D",
"3. c #F1AD9D",
"4. c #E9B698",
"5. c #F1B794",
"6. c #F3B995",
"7. c #FDBD95",
"8. c #C3B2AA",
"9. c #CBBCB5",
"0. c #C7BCB8",
"q. c #EBBEA3",
"w. c #E9B9AB",
"e. c #F0BFA1",
"r. c #F6B9AA",
"t. c #E3BDB3",
"y. c #E9DA99",
"u. c #F5E286",
"i. c #CCC2BE",
"p. c #E6C2AE",
"a. c #F6C2A3",
"s. c #FDC5A3",
"d. c #FCC8A8",
"f. c #FCC9AB",
"g. c #E9C5B5",
"h. c #E6CBBC",
"j. c #F9CCB8",
"k. c #F9D3BC",
"l. c #EEE1A4",
"z. c #F7EAB2",
"x. c #C7C6C6",
"c. c #D5CBC7",
"v. c #DDD1CF",
"b. c #D7D7D7",
"n. c #D9D6D5",
"m. c #DDD9D7",
"M. c #FFD7D9DE",
"N. c #FFDBDBDB",
"B. c #FFE1CDC2",
"V. c #FFF5CEC4",
"C. c #FFEED3C3",
"Z. c #FFE7D5CC",
"A. c #FFF2D4C3",
"S. c #FFF7D6C9",
"D. c #FFF9DBCB",
"F. c #FFE7DCD3",
"G. c #FFE0DFDE",
"H. c #FFFFF6C3",
"J. c #FFE4E1DE",
"K. c #FFEBE5DA",
"L. c #FFF4E3DB",
"P. c #FFF9E6D9",
"I. c #FFFAF4D8",
"U. c #FFDCDDE2",
"Y. c #FFDDE2E3",
"T. c #FFDFE5E8",
"R. c #FFE4E4E4",
"E. c #FFE9E6E4",
"W. c #FFEBE8E6",
"Q. c #FFE2E6E8",
"!. c #FFE5EAEC",
"~. c #FFECECEC",
"^. c #FFFCE6E1",
"/. c #FFF1E9E5",
"(. c #FFFCEAE3",
"). c #FFF2EEED",
"_. c #FFFCEEEA",
"`. c #FFEFF0EF",
"'. c #FFFAF6E4",
"]. c #FFF1F0EF",
"[. c #FFFEF2ED",
"{. c #FFE6EDF1",
"}. c #FFECEEF1",
"|. c #FFEDF2F3",
" X c #FFE8F5FB",
".X c #FFEDF5FA",
"XX c #FFF3F3F3",
"oX c #FFF9F7F5",
"OX c #FFFBF9F5",
"+X c #FFF1F7F9",
"@X c #FFF4FAFD",
"#X c #FFFDFDFD",
/* pixels */
"XXN.#XXXN.#XXXN.#XXXN.#XXXN.#XXXN.#XXXN.#X).N.#X~.N.#X.Xp./ x m v x  .[.}.G.#X~.R.#XW.R.#XQ.R.#XW.R.#XQ.R.#XQ.R.#XR.R.#XR.W.#XW.",
"~.oXW.|.oXW.}.oXW.|.oXW.}.oXW.}.oXR.|.oX~..X@X!.+X#X~.6.z z v v v v z D L.@X!.XX).E.+X@XE.XXXXR.XXXXW.XXXXW.XXoXW.XXXXR.XXXXQ.XX",
"~.#XR.~.#XR.~.#XR.~.#XR.].#XR.~.#XR.XX#XZ.a.7.| a.(.p.w m m x v v v S w ~ P.,./ ! H o.D.R.XXOXR.oXoXG.oXoXN.@X@XU.oXoXR.@XoXR.XX",
"XXN.#XXXN.#XXXN.#XXXN.#XXXN.#X|.N.#XXX4.M w w z w z m x v v v v v v c t x w z z x z z w s.R.R.#XQ.R.#XQ.R.#XE.R.#XR.Q.#XR.W.#XR.",
"XX~.XX`.~.XX).}.XXXX).|.].XXXX~.].XXa.w x S M M M v x v v v v v c e e 8 r t N M v m M M w <.|.|.XX}.}.).}.XX).|.).).).}.).|.XX~.",
"~.#XU.~.#XN.~.#XN.~.#XN.~.#XN.).#Xg.w M m x x x v v v v v v v v v e 9 6 8 v x x v v x m M z D.Y.oX#XN.@XOXb.oX#XM.#X@XN.#XoXm.@X",
"XXR.oXXXR.#X|.R.#XXXR.#X}.G.#X.XT.[ z M x v v v e c v v v v v v c 0 3 2 9 r v v v v v v M w  .#XE.R.#XW.W.#XW.Q.#XW.W.#XQ.W.#XW.",
"XXR.oXXXR.oXXXR.oX|.Q.oXXX{.[.L.g.m x m v v r q 8 e e v v v v v v c 0 0 r v v v v v v v v z G XX.X~.#XW.~.@X~.W.@XW.W.#XW.~.@X~.",
"~.#XN.~.#XN.~.#XN.~.#XT.F.2.D v m v v v v v v 9 6 5 e v v v v v v v v v v x v v v v v v v v v q.P.(.M.#X#Xm.#X#Xb.#X@Xm.#XoXN.oX",
"XXW.XXXXW.XXXX~.XX).{.j.z w x x x v v v v v r 9 2 5 0 c v v v v v v v v v v v v v v v v v v v x z x ( V.|.XX~.~.XX~.}.oX~.~.oX}.",
"XXN.#XXXU.#XXXN.#X+Xh.z x S v v v v v v v v v r e e c v v v v v v v v v v v v v v v v v v v v v m v z w 6.#XQ.R.#XR.R.#XR.W.#XQ.",
"~.#XG.~.#XR.~.#XR.W.) z M x v v v v v v v v v v v v v v v v v v v v v v v v v v v v v v v c v v z v S m z p.#XoXN.#XoXN.#X@XN.OX",
"XXXXW.|.XX~.~.].|.A.z m v v v v v v v v v v v v v v v v v v v v b v v v v v v v v v v c v e r v c v x M z S W.|.~.XX}.~.XX).~.XX",
"XXN.#XXXN.#XXXN.#Xs.w S v v v v v v v v v v v v v v v v v v v v K n v v v v v v v v v c e 8 0 e v v v x S z q.!.#XR.R.#XR.R.#XR.",
"}.#XR.~.#XR.XXoX!.:.z M v v c n V r v v v v v v v v v v v x B Z L Z C v v v v v v v v v 8 5 5 e v v v x M w 2.@XR.XXoXR.oXoXR.oX",
"~.#XE.~.#XR.~.#X!.:.z M c b B C K n n x v v v v v v v v v v v I Y U V v v v v v v v v r 9 2 5 0 c v v x M z ..oXR.oXXXR.@XXXY.oX",
"XXN.#XXXN.#XXXN.#Xf.w S v v Z I I K v v v v v v v v v v v c B L T U Z v c v v v v v v v x r e v v v v x m z ` Q.#XR.R.#XR.R.#XR.",
").XX~.~.XX~.).]..XL.m x m b Z T T L b v v v v v v v v v v v v b B n v c v v v v v v v v v v v v v v v x M w d.@XW.XXXX~.XX|.~.XX",
"~.#XR.~.#XJ.|.#XB.6.G z m v B K L V v v v v v v v v v v v v v c c c v v v v v v v v v v v v c v v v v x m z s./.Y.#XoXN.#XoXm.oX",
"XXN.#XXXN.#X/. .z z z v x v c v v c x v v v v v v v v v v v v v v v v v v v v v v v v v v v v v v v v v v v z z a.R.W.#XQ.W.#XQ.",
"XX~.XX).~.]./ w v m v v v v v x v v v c v v v v v v v v v v v v v v v v v v v v v v v v v v v v v v v v v v v x w { ~.XX~.).oX~.",
"~.#XN.~.#X .w D m v v v v v v v v v v v v v v v v v v v v v v v v v v v v v v v v v v v v v v v v v v v v v v m M z a.U.OX@Xb.@X",
").Q.oX+XC.z m m x v v v v v v v v v v v v v v v c r v v v v x v v v v v v v v c e v c v v v v v v v x v v v v v m z S _.}.W.#X~.",
"XXG.#X+X;.z M x c v v v v v v v v v v v v v v c r 0 c r v v v v v v v x v v r e 8 r r v v v v v v v v r Z b x v v m z S.{.E.#XW.",
"~.#XN.|.o.w M x v e v v v v v v v v v v v v v e 9 9 9 v v v v v v v v v v v e 6 6 9 v v v v v v v c B V K C C v v M z ;.#XoXN.oX",
").|.).XX[ z M w r 8 r r v v v v v v v v v v v 0 3 3 6 c v v v v v v v v v c 8 3 2 9 r v v v v v v x b L U U V c v M z 1..X~.XX}.",
"XXN.#X@X` z M z 6 6 6 r v v v v v v v v v v v e 9 6 0 c v v v v v v v v v v c e 0 r v v v v v v v v B I T Y Z b v M w d. XR.#XR.",
"~.#XR.6.S x v e 6 2 5 e v v v v v v v v v v v x v v v v v v v v v v v v v v v v v v v v v v v v v v v B C C b v v m x G j.+XR.oX",
"|.oX} w v v v v e 8 e c v v v v v v v v v v v v v v v v v v v v v v v v v v v v v v v v v v v v v v v c c r v v v x m z w 2.Q.XX",
"oX| w D v v v v v v v v v v v v v v v v v v v v v v v v v v v v v v v v v v v v v v c v v v v v v v v v v v v v v v x m M w k.{.",
"Z.z m v x v v v v v v v v v v v v v v v v v v v v v v v v v v v v v v v v v v v v v v v v v x v v v v v v v v v v v v x m x D _.",
"<.z S x v v v v v v v v v v v v v v v v v v v v v v v v v v v v v v v v v v v v v v v v v v c v v v v v v v v v v v v v v M w k.",
"} z M x v v v v v v v v v v v v x v v v v v c v v v v v v v v v v v v v v v v v v v v v v b b v v v v v v v v v v v v v v M z :.",
"/ z m x v v v v v v v v v v v v n v c v v v v v v v v v v v c e v v v v v v v v v v x b v C V v b v v v v v v c v e c v c M z X.",
"( z m v v v v v v v v v x v n b L b n v v v v v v v v v v r r 9 r r v v v v v v v v v b C L K Z v c v v v v v r e 0 e e v M w 7.",
"2.w S z v v v x v v v v v r V K L K B c v v v v v v v v v e 9 6 9 c v v v v v v v v v v K Y Y K v v v v v v v v 0 5 5 0 v m z q.",
"D.w M v v v v v v v v v v v B U T U B v v v v v v v v v c e 5 2 6 r v v v v v v v v v b K U U Z n x v v v v v r 9 3 3 0 c v m F.",
"~.o.w D v v v v v v v v v v B L Y L B v v v v v v v v v v c 0 8 e r v v v v v v v v v c v n n v v v v v v v v v c e r x D w ;.#X",
"|.K.J w m m m m v v v v v v v v b v v v v v v v v v v v v v v v v v v v v v c v v v v v v v x v v v v v v v x m m M m m w } XX~.",
").Y.[...w z c z z z m v x v v x v z x c v v v v v v v x x v v v v v v x m v x v v v v v v v v v v v v v v z m x z w w x :.W.#XE.",
"~.#XQ.|.P.,.1.s.h.5.w S m z x x x m S m x x v v v v x m M x v v v x x M x x v x v v v x x m M M x x x x v S z J :.7.f.c.#XoXN.oX",
"XXXXW.}.@X.X.X@X.X|.} w M D S S S v z x S M x x v m m z z S m v z M D z z M S S v x x m S x z z S S M D S z z S. X+X@X}.XXXX~.XX",
"XXN.#XXXb.#XXXb.#XXXF.1.z w z w w x _ y w x S M x x x J H z z v m z q ~ k.^ q z m S M v w F 5.J w w z w w / h.~.#XR.R.#XR.W.#XR.",
"~.#XR.).#XW.~.OXQ.~.#XQ.A.7.( } 7.g.~.N.-.A w z N G 7 -.OX>.F v z ! 7.E.x.i e.[ x w w x [ L.@XZ.s.o.( :.f.F.@XXXR.oXXXR.oXXXR.XX",
"~.#XR.~.#XR.~.#XR.`.oXR..X#XR.`.#X!.XX#XQ.J.p.l 1 C.c.p ~.+X@.: - 9.#XR., i.R.$.f 4.k.L.R.@XXXQ.@XoXR.+X@XR.XXoXR.oXXXR.oXoXY.oX",
"XXN.#XXXN.#XXXN.#XXXN.#X].N.#XXXN.#X~.N.#XXXR.@Xi.h &.= j #X%.. O &.XX&.+ #.Q *.M.#X{.T.#XQ.R.#XR.R.#XQ.R.#XQ.Q.#XR.R.#XR.Q.#XQ.",
"}.XX).XXXX}.~.XX`.`.XX`.).XX~.].XX~.XX|.~.).|.].@XXX0.@.O c.%.O X 0.m.X Q c.W.@X|.~.~.XX].`.XX~.).XX).XX}.|.|.).XX}.|.~.XX|.}.XX",
"~.#XN.~.#XG.~.#XJ.K.OXU.`.#XN.|.#XN.XX#XN.XX#XN.).#XQ.#X8.* k # X 0.j E #X#XN.XX#XN.oX#XN.oX#XN.oXOXb.@X#XZ.] ] v.#XoXN.oXoXN.oX",
"XXU.#XXXR.#XXXR.I.u.u.'.}.N.#XXXR.#XXXY.#X~.R.#X|.R.oX}.R.g O * * > < XX~.G.#XW.Q.#XQ.R.#XQ.R.#X~.R.#XQ.Q.j.; ' P.E.Q.#XE.Q.#XW.",
"XXE.XXXXQ.oX].Q.I.R P '.|.E.XXXXQ.oX~.W.XXXXQ.oX).W.@XW.}.c.@ % =   0.#XW.~.oX{.W.oX~.~.oX~.~.oX~.~.@X~.}.L.r.r.[././.@X~.~.@X~.",
"~.#XN.~.#XN.).#XF.u.H.U.~.#XN.).#XN.XX#Xm.XX#XM.XX#XN.XX#XR.g # O W #XN.oXOXy.z.OXN.oX#XN.oX#XM.@X#Xb.OX#XM.oXoXb.@X#Xn.#X@Xn.@X",
"XXW.XXXXW.XXXXQ.oX|.!.oXXXW.oX|.W.oX~.R.oX|.W.oX|.W.oX~.~.@Xk @ o %.XXoX}.l.P +.K.oX~.~.oX~.~.oXW./.@X~.~.oX~.~.oX~.~.@X/.~.oX).",
"XXG.#XXXR.OXXXY.#XXXJ.#X|.R.#X|.R.#X~.R.#X~.R.#X~.R.#X~.R.#Xh @ O @.W.#X~.K.+.O.K.#X~.R.#XW.R.#X/.Q.#XW.Q.#XQ.E.#XW.R.#XQ.E.#XW.",
"~.#XN.~.#XU.~.#XN.`.#XN.).#XN.).#XN.XX#XN.XX#XN.XX#XN.XX#XU.s % X %.#XN.XX#XN.'.#XN.oX#XM.oX#XN.@X#Xm.@X#XN.#XoXN.OX@XN.#X@Xm.@X",
"XX|.~.].XX~.XX).).}.}.~.XXXX~.XXXX~.XXXXXX}.XX~.XXXX~.XXXX~.d $ o #.oX}.}.].}.|.XX].|.XX).XXXX}.).).}.).).}.XX).}.).XX).}.).~.).",
"XXN.#XXXN.#XXXN.#XXXN.#XXXN.#X~.N.#X~.N.#X).N.#X~.N.#XW.R.#Xd # + E R.#XW.R.#XW.G.#XQ.J.#XR.R.#XW.Y.#XR.R.#XR.R.#XR.Q.#XR.W.#XQ.",
").#XR.~.#XR.}.#XR.~.#XR.).#XR.~.#XR.XX#XR.XX#XR.XX@XR.].#XG.a % X Q #XR.XXoXR.XX@XR.XXoXR.XXoXY.oXoXY.oXoXR.oX@XR.XXoXY.oXoXY.XX",
"}.@XW.~.#XR.~.oXR.XX#XR.|.oXR.XXoX!.~.oXR.|.oXR.XXoXR.|.#XJ.i % o W @XR.XXoXR.XXoXR.XXoXR.oX@X!.oXXXR.oXXXR.XX+XR.@XoXR.oX+XR.oX",
"XXN.#XXXN.#XXXN.#XXXb.#X}.N.#XL.w.^.).N.#X~.N.#X~.m.#X~.Y.oXa % + g R.#XW.U.#XW.Y.#XR.R.#XE.g.^.Q.R.#XQ.R.#XR.R.#XR.R.#XR.R.#XQ.",
"XXXX~.XXXXW.XXXX~.XXXX~.).oXW.] u 3.XXXXW.XXXX~.XXXXW.|.oXJ.< & + k XX~.XXXX~.XXXXW.XXXX}.V.4 4 S.XXW.XXXXW.XXoXW.XXXXW.XXXXW.XX",
"~.#XR.~.#XR.~.#XR.~.#XR.}.#XQ.3.4 3.).#XN.XX#XN.XX#XN.XX#Xn., & o j oXY.XX#XN.XX#XN.XX#XU.S.=.' (.@XN.@X#XN.oXoXN.@XoXN.@X@Xm.oX",
"XXm.#XXXN.#XXXN.#XXXN.#XXXN.#X.Xt._.|.N.#X~.R.#X~.N.#X~.Q.)., % + d R.#XW.Y.#X~.R.#XW.R.#X/.B._.R.Q.#XE.R.#XQ.R.#XQ.W.#XE.E.#XQ.",
"XX~.XX|.~.XXXX~.XXXX~.XXXX~.XXXX|.XX~.~.XXXX~.XXXX~.XX~.XXR.> * + d W.oX~.~.XXXX~.XX~.~.oX|.~.XX}.~.XX).~.XX~.}.XX).}.XX~.).XX).",
"~.#XU.W.#XN.~.#XN.~.#XN.~.#XN.].#XN.XX#XN.XX#XN.XX#XN.XX#Xc.% * + d OXU.XX#XN.XX#XN.XX#XM.oX#Xm.@X#XN.oX#XN.oXoXN.#XoXN.#X@Xm.@X"
};
